<svg xmlns="http://www.w3.org/2000/svg" version="1.1" xmlns:xlink="http://www.w3.org/1999/xlink" xmlns:svgjs="http://svgjs.dev/svgjs" width="1000" height="300" viewBox="0 0 1000 300"><g transform="matrix(1,0,0,1,-0.6060606060606233,0.2452957093758812)"><svg viewBox="0 0 396 119" data-background-color="#212529" preserveAspectRatio="xMidYMid meet" height="300" width="1000" xmlns="http://www.w3.org/2000/svg" xmlns:xlink="http://www.w3.org/1999/xlink"><g id="tight-bounds" transform="matrix(1,0,0,1,0.2400000000000091,-0.09730063138576384)"><svg viewBox="0 0 395.52 119.1946012627715" height="119.1946012627715" width="395.52"><g><svg viewBox="0 0 556.3653232964907 167.66723014451398" height="119.1946012627715" width="395.52"><g><rect width="8.616590886315436" height="167.66723014451398" x="129.6722117653705" y="0" fill="#ffffff" opacity="1" stroke-width="0" stroke="transparent" fill-opacity="1" class="rect-qz-0" data-fill-palette-color="primary" rx="1%" id="qz-0" data-palette-color="#ffffff"></rect></g><g transform="matrix(1,0,0,1,160.84532329649073,0.4170826620510155)"><svg viewBox="0 0 395.52 166.83306482041195" height="166.83306482041195" width="395.52"><g id="textblocktransform"><svg viewBox="0 0 395.52 166.83306482041195" height="166.83306482041195" width="395.52" id="textblock"><g><svg viewBox="0 0 395.52 95.54770770770772" height="95.54770770770772" width="395.52"><g transform="matrix(1,0,0,1,0,0)"><svg width="395.52" viewBox="2 -35.5 149.84 36.2" height="95.54770770770772" data-palette-color="#ffffff"><path d="M2-35L9.7-35 19.2-35.5Q23.6-35.5 26.4-33.65 29.2-31.8 29.2-28.6L29.2-28.6Q29.2-24.15 26.8-21.35 24.4-18.55 20.9-17.1L20.9-17.1 29-4.9Q29.5-4.1 30.93-2.75 32.35-1.4 33.5-1.4L33.5-1.4 34.4-1.4 34.4 0 27 0Q27.15 0 26.05-1.5 24.95-3 24.8-3.3L24.8-3.3 16.5-16.1Q16-16 14.5-16 13-16 12.1-16.1L12.1-16.1 11.7-18.1Q12.4-18 14.7-18 17-18 19.3-18.6 21.6-19.2 23.35-20.88 25.1-22.55 25.1-25.2L25.1-25.2Q25.1-32.6 15.6-32.6L15.6-32.6 10.4-32.4 10.4-3.7Q10.4-2.95 10.5-2.55 10.6-2.15 11.15-1.78 11.7-1.4 12.8-1.4L12.8-1.4 14.7-1.4 14.7 0 2 0 2-1.4 3.6-1.4Q4.7-1.4 5.25-1.78 5.8-2.15 5.9-2.55 6-2.95 6-3.7L6-3.7 6-31.3Q6-32.45 5.53-32.98 5.05-33.5 3.6-33.5L3.6-33.5 2-33.5 2-35ZM56.6-6.1L56.6-6.1 57.5-5.2Q54.3 0.7 46 0.7L46 0.7Q42.15 0.7 39.42-2.7 36.7-6.1 36.7-10.3L36.7-10.3Q36.7-15.95 40.37-19.98 44.05-24 49.3-24L49.3-24Q51.8-24 53.7-22.55L53.7-22.55Q57.1-19.9 57.1-15.7L57.1-15.7Q57.1-15.1 56.87-14.25 56.65-13.4 56.5-13.4L56.5-13.4 40.4-12.9Q40.4-9 42.85-5.7 45.3-2.4 48.8-2.4L48.8-2.4Q51.3-2.4 53.42-3.43 55.55-4.45 56.6-6.1ZM40.9-14.9L40.9-14.9 52.6-15.4Q52.7-15.4 52.7-16.3L52.7-16.3Q52.7-18.9 51.17-20 49.65-21.1 46.97-21.1 44.3-21.1 42.6-19.45 40.9-17.8 40.9-14.9ZM86.9-1.4L86.9 0 78.3 0 78.3-1.4 78.5-1.4Q79.05-1.4 79.42-1.95 79.8-2.5 79.8-3.3L79.8-3.3 79.8-16Q79.8-18.25 78.72-19.43 77.65-20.6 75.7-20.6L75.7-20.6Q72.9-20.6 70.75-17.6 68.6-14.6 68.6-13.1L68.6-13.1 68.6-3.6Q68.6-2.8 68.67-2.45 68.75-2.1 69.25-1.75 69.75-1.4 70.8-1.4L70.8-1.4 71.7-1.4 71.7 0 61.6 0 61.6-1.4 62.4-1.4Q63.75-1.4 64.12-1.85 64.5-2.3 64.5-3.3L64.5-3.3 64.5-18.3Q64.5-19.25 63.87-19.68 63.25-20.1 61.6-20.1L61.6-20.1 61.6-21.5Q62.6-21.5 64.62-22.23 66.65-22.95 67.7-23.6L67.7-23.6 68.6-23.8 68.6-17.4Q69.75-20.55 72.15-22.28 74.55-24 78-24L78-24Q79.8-24 81.05-23.2 82.3-22.4 82.85-21.15L82.85-21.15Q83.8-19 83.8-16.9L83.8-16.9 83.8-3.4Q83.8-2.7 83.9-2.35L83.9-2.35Q84.15-1.4 86-1.4L86-1.4 86.9-1.4ZM104.74-3.1L104.74-3.1 105.14-1.9Q101.39 0.7 96.94 0.7L96.94 0.7Q95.34 0.7 94.19-0.45 93.04-1.6 93.04-3.5L93.04-3.5 93.04-21.2 90.14-21.2 90.14-23.3 91.24-23.3Q92.89-23.3 94.32-25.3 95.74-27.3 95.74-29L95.74-29 97.04-29 97.04-23.3 103.84-23.3 103.84-21.2 98.94-21.2Q97.04-21.2 97.04-19.4L97.04-19.4 97.04-5.1Q97.04-1.8 99.44-1.8L99.44-1.8Q102.14-1.8 104.74-3.1ZM120.04-1.4L120.04 0 107.34 0 107.34-1.4 109.04-1.4Q110.54-1.4 110.99-2 111.44-2.6 111.44-3.7L111.44-3.7 111.44-31.3Q111.44-32.4 110.99-33 110.54-33.6 109.04-33.6L109.04-33.6 107.34-33.6 107.34-35 120.04-35 120.04-33.6 118.14-33.6Q116.64-33.6 116.19-33 115.74-32.4 115.74-31.3L115.74-31.3 115.74-3.7Q115.74-2.6 116.19-2 116.64-1.4 118.14-1.4L118.14-1.4 120.04-1.4ZM143.74-1.4L143.74 0 130.74 0 130.74-1.4 132.74-1.4Q134.24-1.4 134.64-1.98 135.04-2.55 135.04-3.6L135.04-3.6 135.04-30.6Q135.04-31.35 134.94-31.78 134.84-32.2 134.31-32.55 133.79-32.9 132.74-32.9L132.74-32.9 129.74-32.9Q127.09-32.9 125.66-31.28 124.24-29.65 124.14-27.8L124.14-27.8 122.74-28.1 123.24-35 151.34-35 151.84-28.1 150.44-27.8Q150.34-29.6 148.89-31.25 147.44-32.9 144.84-32.9L144.84-32.9 141.84-32.9Q140.74-32.9 140.19-32.52 139.64-32.15 139.54-31.75 139.44-31.35 139.44-30.6L139.44-30.6 139.44-3.6Q139.44-2.9 139.54-2.5 139.64-2.1 140.19-1.75 140.74-1.4 141.84-1.4L141.84-1.4 143.74-1.4Z" opacity="1" transform="matrix(1,0,0,1,0,0)" fill="#ffffff" class="wordmark-text-0" data-fill-palette-color="primary" id="text-0"></path></svg></g></svg></g><g transform="matrix(1,0,0,1,0,118.10422835251252)"><svg viewBox="0 0 232.209792 48.72883646789944" height="48.72883646789944" width="232.209792"><g transform="matrix(1,0,0,1,0,0)"><svg width="232.209792" viewBox="2 -39.65 240.63 50.5" height="48.72883646789944" data-palette-color="#ffffff"><path d="M29.05-34.55L31.25 0 25.2 0 24.6-14.6Q24.3-22.6 24.3-26L24.3-26 24.35-28.6 19.6-3.8 13.6-3.8 8.65-28.65Q8.7-27.15 8.7-24.05L8.7-24.05Q8.7-18.8 8.5-14.4L8.5-14.4 7.95 0 2 0 4.2-34.55 12.2-34.55 16.7-10.2 20.9-34.55 29.05-34.55ZM52.95-6.4Q52.95-5.1 53.3-4.48 53.65-3.85 54.45-3.45L54.45-3.45 53.2 0.65Q51.15 0.4 49.92-0.45 48.7-1.3 48.1-3.05L48.1-3.05Q45.8 0.75 41.65 0.75L41.65 0.75Q38.35 0.75 36.4-1.48 34.45-3.7 34.45-7.4L34.45-7.4Q34.45-11.7 37.12-13.95 39.8-16.2 44.9-16.2L44.9-16.2 46.95-16.2 46.95-18.05Q46.95-20.55 46.07-21.58 45.2-22.6 43.25-22.6L43.25-22.6Q40.9-22.6 37.4-21.3L37.4-21.3 36-25.3Q38-26.2 40.15-26.68 42.3-27.15 44.25-27.15L44.25-27.15Q52.95-27.15 52.95-18.35L52.95-18.35 52.95-6.4ZM43.3-3.7Q45.7-3.7 46.95-7L46.95-7 46.95-12.55 45.5-12.55Q42.95-12.55 41.77-11.4 40.6-10.25 40.6-7.85L40.6-7.85Q40.6-5.8 41.3-4.75 42-3.7 43.3-3.7L43.3-3.7ZM71.7-37.7L77.85-37.05 77.85 0 72.4 0 72.1-3.05Q69.75 0.75 66.05 0.75L66.05 0.75Q61.95 0.75 59.77-2.93 57.6-6.6 57.6-13.2L57.6-13.2Q57.6-17.4 58.72-20.58 59.85-23.75 61.85-25.45 63.85-27.15 66.45-27.15L66.45-27.15Q69.65-27.15 71.7-24.5L71.7-24.5 71.7-37.7ZM67.8-3.9Q68.95-3.9 69.87-4.7 70.8-5.5 71.7-7L71.7-7 71.7-19.85Q70.1-22.55 68.05-22.55L68.05-22.55Q64-22.55 64-13.25L64-13.25Q64-8.2 65-6.05 66-3.9 67.8-3.9L67.8-3.9ZM102.39-13.85Q102.39-13.4 102.24-11.3L102.24-11.3 88.59-11.3Q88.79-7.2 90.02-5.58 91.24-3.95 93.49-3.95L93.49-3.95Q95.04-3.95 96.29-4.48 97.54-5 98.99-6.15L98.99-6.15 101.54-2.65Q98.04 0.75 93.14 0.75L93.14 0.75Q87.94 0.75 85.17-2.85 82.39-6.45 82.39-13L82.39-13Q82.39-19.55 85.04-23.35 87.69-27.15 92.54-27.15L92.54-27.15Q97.19-27.15 99.79-23.78 102.39-20.4 102.39-13.85L102.39-13.85ZM96.39-15.3L96.39-15.65Q96.39-19.4 95.49-21.13 94.59-22.85 92.59-22.85L92.59-22.85Q90.74-22.85 89.77-21.18 88.79-19.5 88.59-15.3L88.59-15.3 96.39-15.3ZM125.44-35.25Q128.44-35.25 130.74-34.2 133.04-33.15 134.99-31.05L134.99-31.05 132.04-27.65Q130.49-29.05 129.01-29.75 127.54-30.45 125.89-30.45L125.89-30.45Q123.99-30.45 122.89-29.28 121.79-28.1 121.79-26.2L121.79-26.2Q121.79-24.3 122.94-23.1 124.09-21.9 127.44-20.6L127.44-20.6Q131.74-18.85 133.76-16.5 135.79-14.15 135.79-9.85L135.79-9.85Q135.79-6.9 134.44-4.48 133.09-2.05 130.56-0.65 128.04 0.75 124.69 0.75L124.69 0.75Q121.24 0.75 118.69-0.48 116.14-1.7 114.04-3.95L114.04-3.95 117.24-7.45Q119.04-5.85 120.69-5 122.34-4.15 124.29-4.15L124.29-4.15Q126.59-4.15 127.86-5.58 129.14-7 129.14-9.45L129.14-9.45Q129.14-11.6 128.01-12.98 126.89-14.35 123.84-15.5L123.84-15.5Q119.24-17.35 117.21-19.75 115.19-22.15 115.19-25.75L115.19-25.75Q115.19-28.5 116.51-30.65 117.84-32.8 120.19-34.02 122.54-35.25 125.44-35.25L125.44-35.25ZM139.79-26.45L145.94-26.45 145.94 0 139.79 0 139.79-26.45ZM142.84-39.65Q144.49-39.65 145.51-38.6 146.54-37.55 146.54-35.9L146.54-35.9Q146.54-34.3 145.51-33.25 144.49-32.2 142.84-32.2L142.84-32.2Q141.19-32.2 140.16-33.25 139.14-34.3 139.14-35.9L139.14-35.9Q139.14-37.55 140.16-38.6 141.19-39.65 142.84-39.65L142.84-39.65ZM175.28-27.15Q177.93-27.15 179.53-25.1 181.13-23.05 181.13-19.6L181.13-19.6 181.13 0 175.08 0 175.08-18.95Q175.08-20.85 174.58-21.68 174.08-22.5 173.13-22.5L173.13-22.5Q171.18-22.5 169.38-18.8L169.38-18.8 169.38 0 163.38 0 163.38-18.95Q163.38-22.5 161.48-22.5L161.48-22.5Q159.43-22.5 157.68-18.8L157.68-18.8 157.68 0 151.63 0 151.63-26.45 156.98-26.45 157.38-23.05Q159.98-27.15 163.63-27.15L163.63-27.15Q165.48-27.15 166.83-26 168.18-24.85 168.88-22.75L168.88-22.75Q171.53-27.15 175.28-27.15L175.28-27.15ZM198.83-27.15Q202.73-27.15 204.73-23.58 206.73-20 206.73-13.3L206.73-13.3Q206.73-6.8 204.46-3.03 202.18 0.75 198.13 0.75L198.13 0.75Q194.93 0.75 192.78-2.1L192.78-2.1 192.78 10.15 186.63 10.85 186.63-26.45 192.08-26.45 192.33-23.25Q193.63-25.25 195.23-26.2 196.83-27.15 198.83-27.15L198.83-27.15ZM196.48-3.95Q198.38-3.95 199.38-6.13 200.38-8.3 200.38-13.25L200.38-13.25Q200.38-18.45 199.53-20.5 198.68-22.55 196.88-22.55L196.88-22.55Q194.58-22.55 192.78-19.25L192.78-19.25 192.78-6.45Q194.38-3.95 196.48-3.95L196.48-3.95ZM216.93 0.75Q214.23 0.75 212.65-0.93 211.08-2.6 211.08-5.4L211.08-5.4 211.08-37.05 217.23-37.7 217.23-5.65Q217.23-5 217.53-4.6 217.83-4.2 218.43-4.2L218.43-4.2Q218.78-4.2 219.1-4.3 219.43-4.4 219.53-4.4L219.53-4.4 220.73-0.2Q219.03 0.75 216.93 0.75L216.93 0.75ZM242.63-13.85Q242.63-13.4 242.48-11.3L242.48-11.3 228.83-11.3Q229.03-7.2 230.25-5.58 231.48-3.95 233.73-3.95L233.73-3.95Q235.28-3.95 236.53-4.48 237.78-5 239.23-6.15L239.23-6.15 241.78-2.65Q238.28 0.75 233.38 0.75L233.38 0.75Q228.18 0.75 225.4-2.85 222.63-6.45 222.63-13L222.63-13Q222.63-19.55 225.28-23.35 227.93-27.15 232.78-27.15L232.78-27.15Q237.43-27.15 240.03-23.78 242.63-20.4 242.63-13.85L242.63-13.85ZM236.63-15.3L236.63-15.65Q236.63-19.4 235.73-21.13 234.83-22.85 232.83-22.85L232.83-22.85Q230.98-22.85 230-21.18 229.03-19.5 228.83-15.3L228.83-15.3 236.63-15.3Z" opacity="1" transform="matrix(1,0,0,1,0,0)" fill="#ffffff" class="slogan-text-1" data-fill-palette-color="secondary" id="text-1"></path></svg></g></svg></g></svg></g></svg></g><g transform="matrix(1,0,0,1,0,0.4170826620510155)"><svg viewBox="0 0 107.1156911205657 166.83306482041195" height="166.83306482041195" width="107.1156911205657"><g><svg xmlns="http://www.w3.org/2000/svg" xmlns:xlink="http://www.w3.org/1999/xlink" version="1.1" x="0" y="0" viewBox="22.974587683731006 4.984999999999999 57.794412316269 90.015" enable-background="new 0 0 100 100" xml:space="preserve" height="166.83306482041195" width="107.1156911205657" class="icon-icon-0" data-fill-palette-color="accent" id="icon-0"><g fill="#ffffff" data-fill-palette-color="accent"><path d="M27.678 26.78h9.189c0.081 0 0.159-0.013 0.239-0.02l10.795 13.085c1.643 1.762 4.333 1.961 6.213 0.535v3.714c-3.756 0.256-6.724 3.38-6.724 7.201 0 3.006 1.837 5.583 4.45 6.669v-0.197c0-1.528 1.244-2.771 2.771-2.771 1.526 0 2.77 1.243 2.77 2.771v0.197c2.613-1.086 4.45-3.663 4.45-6.669 0-3.821-2.968-6.945-6.723-7.201v-3.813c0.689 0.648 1.563 1.042 2.52 1.042 2.218 0 4.015-2.083 4.015-4.654V22.027l5.855 4.511c2.081 1.508 4.888 1.186 6.269-0.721 1.382-1.906 0.815-4.674-1.267-6.182l-5.67-4.368h8.878c2.571 0 4.654-1.748 4.654-3.903S78.28 7.46 75.709 7.46h-18.1c-2.454-1.535-6.026-2.475-10.725-2.475-3.886 0-7.51 0.716-10.477 1.893h-8.729c-2.375 0-4.3 3.186-4.3 7.115v5.671C23.378 23.595 25.304 26.78 27.678 26.78zM54.612 48.331c0.273 0 0.497-0.224 0.497-0.5v-0.695c0.702 0.215 1.217 0.861 1.217 1.633 0 0.945-0.77 1.713-1.714 1.713-0.946 0-1.716-0.769-1.716-1.713 0-0.772 0.515-1.418 1.218-1.633v0.695C54.114 48.107 54.337 48.331 54.612 48.331zM49.843 19.174c1.907 0 3.769 1.825 3.769 3.73v9.266l-7.136-8.651c-0.024-0.232-0.045-0.518-0.089-0.888C46.165 20.738 47.938 19.174 49.843 19.174z" fill="#ffffff" data-fill-palette-color="accent"></path><path d="M76.131 68.937h-9.913c-2.132 0-3.923 2.384-4.466 5.627l1.241 0.217-7.028-0.224c0.457-0.387 0.753-0.957 0.753-1.601V57.768c0-1.163-0.944-2.108-2.105-2.108-1.162 0-2.107 0.945-2.107 2.108v15.188c0 0.594 0.249 1.128 0.645 1.511l-2.68-0.085c-1.066 0.032-2.024 0.471-2.738 1.16-0.358 0.369-0.659 0.795-0.892 1.26-0.251 0.549-0.389 1.159-0.374 1.803 0.052 2.223 1.902 4.03 4.125 4.03l0.125-0.001 0.027 0.001 10.234 0.717 5.295-0.284-4.615 0.708-10.961 0.644-0.105 0.001c-3.184 0-5.834-2.59-5.909-5.774-0.019-0.82 0.131-1.608 0.419-2.326l-9.491-3.555c-2.597-0.973-5.253-0.286-5.934 1.53-0.128 0.343-0.176 0.7-0.154 1.063l-0.569-0.173c-2.672-0.741-5.3 0.327-5.87 2.384-0.562 2.031 1.096 4.266 3.712 5.034-0.077 0.156-0.146 0.319-0.194 0.492-0.551 1.987 1.17 4.198 3.842 4.938l10.266 3.108C43.287 93.487 47.667 95 53.854 95c6.538 0 12.394-1.874 15.931-4.595h6.346c2.561 0 4.638-3.437 4.638-7.676v-6.118C80.769 72.372 78.691 68.937 76.131 68.937z" fill="#ffffff" data-fill-palette-color="accent"></path></g></svg></g></svg></g></svg></g><defs></defs></svg><rect width="395.52" height="119.1946012627715" fill="none" stroke="none" visibility="hidden"></rect></g></svg></g></svg>