<svg xmlns="http://www.w3.org/2000/svg" xmlns:xlink="http://www.w3.org/1999/xlink" viewBox="0 0 61.30387746738002 95.481" height="95.481" width="61.30387746738002" data-background-color="#212529" preserveAspectRatio="xMidYMid meet" id="tight-bounds"><g><svg viewBox="0 0 61.30387746738002 95.481" height="95.481" width="61.30387746738002"><g><svg viewBox="0 0 61.30387746738002 95.481" height="95.481" width="61.30387746738002"><g id="textblocktransform"><svg viewBox="0 0 61.30387746738002 95.481" height="95.481" width="61.30387746738002" id="textblock"><g><svg viewBox="0 0 61.30387746738002 95.481" height="95.481" width="61.30387746738002"><g><svg viewBox="0 0 61.30387746738002 95.481" height="95.481" width="61.30387746738002"><g><svg xmlns="http://www.w3.org/2000/svg" xmlns:xlink="http://www.w3.org/1999/xlink" version="1.1" x="0" y="0" viewBox="22.974590301513672 4.985000133514404 57.79441452026367 90.01499938964844" enable-background="new 0 0 100 100" xml:space="preserve" height="95.481" width="61.30387746738002" class="icon-icon-0" data-fill-palette-color="accent" id="icon-0" fill="#ffffff"><g fill="#ffffff" data-fill-palette-color="accent"><path d="M27.678 26.78h9.189c0.081 0 0.159-0.013 0.239-0.02l10.795 13.085c1.643 1.762 4.333 1.961 6.213 0.535v3.714c-3.756 0.256-6.724 3.38-6.724 7.201 0 3.006 1.837 5.583 4.45 6.669v-0.197c0-1.528 1.244-2.771 2.771-2.771 1.526 0 2.77 1.243 2.77 2.771v0.197c2.613-1.086 4.45-3.663 4.45-6.669 0-3.821-2.968-6.945-6.723-7.201v-3.813c0.689 0.648 1.563 1.042 2.52 1.042 2.218 0 4.015-2.083 4.015-4.654V22.027l5.855 4.511c2.081 1.508 4.888 1.186 6.269-0.721 1.382-1.906 0.815-4.674-1.267-6.182l-5.67-4.368h8.878c2.571 0 4.654-1.748 4.654-3.903S78.28 7.46 75.709 7.46h-18.1c-2.454-1.535-6.026-2.475-10.725-2.475-3.886 0-7.51 0.716-10.477 1.893h-8.729c-2.375 0-4.3 3.186-4.3 7.115v5.671C23.378 23.595 25.304 26.78 27.678 26.78zM54.612 48.331c0.273 0 0.497-0.224 0.497-0.5v-0.695c0.702 0.215 1.217 0.861 1.217 1.633 0 0.945-0.77 1.713-1.714 1.713-0.946 0-1.716-0.769-1.716-1.713 0-0.772 0.515-1.418 1.218-1.633v0.695C54.114 48.107 54.337 48.331 54.612 48.331zM49.843 19.174c1.907 0 3.769 1.825 3.769 3.73v9.266l-7.136-8.651c-0.024-0.232-0.045-0.518-0.089-0.888C46.165 20.738 47.938 19.174 49.843 19.174z" fill="#ffffff" data-fill-palette-color="accent"/><path d="M76.131 68.937h-9.913c-2.132 0-3.923 2.384-4.466 5.627l1.241 0.217-7.028-0.224c0.457-0.387 0.753-0.957 0.753-1.601V57.768c0-1.163-0.944-2.108-2.105-2.108-1.162 0-2.107 0.945-2.107 2.108v15.188c0 0.594 0.249 1.128 0.645 1.511l-2.68-0.085c-1.066 0.032-2.024 0.471-2.738 1.16-0.358 0.369-0.659 0.795-0.892 1.26-0.251 0.549-0.389 1.159-0.374 1.803 0.052 2.223 1.902 4.03 4.125 4.03l0.125-0.001 0.027 0.001 10.234 0.717 5.295-0.284-4.615 0.708-10.961 0.644-0.105 0.001c-3.184 0-5.834-2.59-5.909-5.774-0.019-0.82 0.131-1.608 0.419-2.326l-9.491-3.555c-2.597-0.973-5.253-0.286-5.934 1.53-0.128 0.343-0.176 0.7-0.154 1.063l-0.569-0.173c-2.672-0.741-5.3 0.327-5.87 2.384-0.562 2.031 1.096 4.266 3.712 5.034-0.077 0.156-0.146 0.319-0.194 0.492-0.551 1.987 1.17 4.198 3.842 4.938l10.266 3.108C43.287 93.487 47.667 95 53.854 95c6.538 0 12.394-1.874 15.931-4.595h6.346c2.561 0 4.638-3.437 4.638-7.676v-6.118C80.769 72.372 78.691 68.937 76.131 68.937z" fill="#ffffff" data-fill-palette-color="accent"/></g></svg></g></svg></g></svg></g></svg></g></svg></g></svg></g><defs/></svg>